<?xml version="1.0" encoding="UTF-8"?><svg id="Capa_1" xmlns="http://www.w3.org/2000/svg" viewBox="0 0 5.08 5.22"><defs><style>.cls-1{fill:#fff;}.cls-1,.cls-2{fill-rule:evenodd;stroke-width:0px;}.cls-2{fill:#1d1d1b;}</style></defs><path class="cls-1" d="M4.4.53c0,.19.06.63-.33.63-.13,0-.25-.08-.3-.18-.05-.1-.03-.33-.03-.45h-.87c0,.12.02.35-.03.45-.13.24-.46.24-.59,0-.06-.11-.04-.32-.04-.45h-.87c0,.28.05.43-.14.57-.14.11-.39.06-.48-.12-.05-.11-.04-.32-.03-.45-.24,0-.59-.05-.66.34-.03.16,0,2.66,0,2.95,0,.32-.01.66,0,.97.01.37.23.43.57.43h3.93c.17,0,.33,0,.43-.1,0,0,0,0,0,0l.02-.02c.07-.08.1-.15.11-.28.02-.31,0-.67,0-.99,0-.3.02-2.76,0-2.94-.05-.4-.44-.35-.67-.35h0Z"/><path class="cls-2" d="M4.73,1.62H.35c-.02.43,0,.92,0,1.36v1.71c0,.13-.01.2.12.21.21.01.47,0,.68,0h2.76c.96,0,.82.13.82-.53v-1.37c0-.45.02-.93,0-1.38h0Z"/><polygon class="cls-1" points="1.63 3.64 2.39 3.64 2.4 2.88 1.64 2.88 1.63 3.64 1.63 3.64"/><polygon class="cls-1" points="1.34 1.88 .6 1.88 .61 2.62 1.34 2.62 1.34 1.88 1.34 1.88"/><path class="cls-1" d="M2.68,3.61s0,.03.18.03h.4c.12,0,.15.01.18-.03v-.72s-.75,0-.75,0v.64c0,.11.02.05-.01.07h0Z"/><polygon class="cls-1" points="4.48 1.88 3.73 1.88 3.74 2.62 4.47 2.62 4.48 1.88 4.48 1.88"/><polygon class="cls-1" points="3.43 1.88 2.69 1.88 2.7 2.62 3.43 2.62 3.43 1.88 3.43 1.88"/><polygon class="cls-1" points="2.39 1.88 1.65 1.88 1.65 2.62 2.38 2.62 2.39 1.88 2.39 1.88"/><polygon class="cls-1" points=".6 4.63 1.34 4.63 1.34 3.89 .61 3.89 .6 4.63 .6 4.63"/><polygon class="cls-1" points="2.69 4.63 3.43 4.63 3.43 3.89 2.69 3.89 2.69 4.63 2.69 4.63"/><polygon class="cls-1" points="1.65 4.63 2.38 4.63 2.38 3.89 1.65 3.89 1.65 4.63 1.65 4.63"/><polygon class="cls-1" points="3.74 4.63 4.47 4.63 4.47 3.89 3.74 3.89 3.74 4.63 3.74 4.63"/><path class="cls-1" d="M3.73,3.61s0,.03.18.03c.07,0,.13,0,.2,0h.34c.06-.02,0,.02.04-.03-.04,0-.02.04-.02-.15v-.57s-.73,0-.73,0v.72s-.01-.01-.01-.01h0Z"/><path class="cls-1" d="M.59,3.61s0,.03.18.03h.54c.06-.02,0,.02.04-.03h-.02s0-.72,0-.72c-.12.02-.62.02-.74,0v.57c0,.18.03.14-.01.15h0Z"/><polygon class="cls-1" points="1.65 3.62 2.38 3.61 2.38 2.89 1.65 2.9 1.65 3.62 1.65 3.62"/><path class="cls-1" d="M4.02.01c-.24.04-.18.34-.18.59s-.02.52.29.46c.23-.05.17-.34.17-.58,0-.11.02-.26-.03-.36-.03-.07-.13-.12-.25-.1h0Z"/><path class="cls-1" d="M.95.02c-.22.07-.16.21-.16.58,0,.24-.02.54.3.46.22-.06.16-.37.16-.6,0-.11.02-.26-.04-.35-.04-.07-.15-.12-.25-.08h0Z"/><path class="cls-1" d="M2.49.01c-.24.06-.18.26-.18.59,0,.24-.03.52.29.46.23-.04.17-.35.17-.58,0-.11.06-.54-.28-.46h0Z"/><path class="cls-1" d="M1.35,1.88v.76s-.75,0-.75,0v-.76c-.03.05-.01.08-.01.18,0,.07,0,.13,0,.2,0,.1-.02.31.01.4h.78c0-.06.02-.72-.02-.78h0Z"/><path class="cls-1" d="M.59,4.63v-.76s.76,0,.76,0v.76s0-.01,0-.01c0,0,0,0,0-.01v-.36c0-.12.02-.28,0-.39-.09-.03-.69-.03-.77,0,0,.06-.03.7,0,.76h0Z"/><path class="cls-1" d="M2.39,1.88v.74h-.73v-.74c-.04.09-.02.62-.02.76h.76c0-.15.03-.67-.01-.76h0Z"/><path class="cls-1" d="M.59,3.61s.02.03.02-.15v-.57c.12.02.61.02.73,0v.73s0-.01,0-.01v-.73s-.76,0-.76,0v.73h0Z"/><path class="cls-1" d="M2.69,4.63v-.74s.73,0,.73,0v.74-.02s.02-.02.02-.05v-.69h-.77v.58s0,.06,0,.09l.02.09h0Z"/><path class="cls-1" d="M1.65,4.63v-.75s.73,0,.73,0v.75s0-.01,0-.01c0,0,0,0,0-.01v-.74s-.76,0-.76,0v.58c0,.07-.01.13.02.18h0Z"/><path class="cls-1" d="M4.48,1.88v.74h-.73v-.74s-.02.76-.02.76h.76c0-.16.03-.66-.01-.76h0Z"/><path class="cls-1" d="M3.73,4.64v-.76h.76v.76c.03-.06.02-.72.01-.77-.08-.03-.7-.03-.78,0v.77h.01Z"/><path class="cls-1" d="M3.73,3.61h.02s0-.71,0-.71h.73s0,.56,0,.56c0,.19-.02.14.02.15v-.73s-.75,0-.75,0v.73h0Z"/><path class="cls-1" d="M3.43,1.88v.74s-.73,0-.73,0v-.75s-.02.76-.02.76h.76s0-.73,0-.73c0-.03,0-.02-.02-.04h0Z"/><polygon class="cls-1" points="3.73 4.64 3.74 4.63 3.74 3.89 4.47 3.89 4.47 4.63 4.48 4.63 4.48 3.87 3.73 3.87 3.73 4.64 3.73 4.64"/><polygon class="cls-1" points=".59 4.63 .6 4.63 .61 3.89 1.34 3.89 1.34 4.63 1.35 4.64 1.35 3.87 .59 3.87 .59 4.63 .59 4.63"/><path class="cls-1" d="M2.68,3.61s.02.04.02-.07v-.64s.73,0,.73,0v.72s.01-.73.01-.73h-.75s0,.73,0,.73h0Z"/><polygon class="cls-1" points="1.35 1.88 1.34 1.88 1.34 2.62 .61 2.62 .6 1.88 .59 1.88 .59 2.64 1.35 2.64 1.35 1.88 1.35 1.88"/></svg>