<?xml version="1.0" encoding="UTF-8"?><svg id="Capa_1" xmlns="http://www.w3.org/2000/svg" viewBox="0 0 38.99 40.12"><defs><style>.cls-1{fill:#fff;}.cls-1,.cls-2{fill-rule:evenodd;stroke-width:0px;}.cls-2{fill:#d7b46a;}</style></defs><path class="cls-2" d="M33.78,4.08c.03,1.46.48,4.85-2.53,4.86-1,0-1.89-.65-2.28-1.37-.42-.78-.25-2.52-.26-3.48h-6.69c0,.93.15,2.7-.27,3.47-.98,1.81-3.57,1.85-4.53,0-.42-.82-.29-2.46-.27-3.47h-6.71c.04,2.13.35,3.29-1.1,4.41-1.09.84-2.99.45-3.69-.94-.42-.83-.28-2.46-.26-3.47-1.83,0-4.53-.36-5.08,2.59C-.11,7.9.06,27.12.06,29.35c0,2.45-.08,5.04,0,7.48.09,2.87,1.75,3.29,4.36,3.29h30.17c1.3,0,2.5.06,3.34-.78.02-.02.05-.05.07-.07l.13-.14c.55-.61.76-1.16.81-2.15.13-2.4,0-5.18,0-7.62,0-2.31.14-21.23-.04-22.56-.42-3.07-3.38-2.71-5.11-2.72h0Z"/><path class="cls-1" d="M36.32,12.41l-33.66-.02c-.19,3.29-.01,7.12-.01,10.45v13.15c0,.98-.09,1.51.94,1.57,1.62.09,3.59,0,5.25,0h21.17c7.39,0,6.33.98,6.33-4.06v-10.52c0-3.44.14-7.17-.02-10.58h0Z"/><polygon class="cls-2" points="10.33 14.41 4.58 14.41 4.67 20.13 10.27 20.12 10.33 14.41 10.33 14.41"/><path class="cls-2" d="M20.59,27.71c.29.28.01.25,1.4.23h3.05c.9.01,1.12.09,1.39-.23l-.1-5.51-5.63.06.03,4.9c-.01.85.15.4-.14.55h0Z"/><polygon class="cls-2" points="34.37 14.41 28.68 14.41 28.73 20.12 34.33 20.12 34.37 14.41 34.37 14.41"/><polygon class="cls-2" points="26.31 14.4 20.65 14.41 20.71 20.14 26.31 20.12 26.31 14.4 26.31 14.4"/><polygon class="cls-2" points="18.33 14.41 12.65 14.41 12.69 20.12 18.28 20.12 18.33 14.41 18.33 14.41"/><polygon class="cls-2" points="4.64 35.59 10.25 35.59 10.28 29.87 4.65 29.87 4.64 35.59 4.64 35.59"/><polygon class="cls-2" points="20.69 35.58 26.31 35.59 26.31 29.88 20.68 29.88 20.69 35.58 20.69 35.58"/><polygon class="cls-2" points="12.46 35.58 18.08 35.59 18.08 29.88 12.45 29.88 12.46 35.58 12.46 35.58"/><polygon class="cls-2" points="28.75 35.59 34.34 35.58 34.34 29.87 28.73 29.87 28.75 35.59 28.75 35.59"/><path class="cls-2" d="M28.61,27.71c.3.28.02.23,1.4.21.51,0,1.02,0,1.52,0l2.6-.04c.47-.14-.05.17.31-.17-.3-.04-.14.29-.12-1.13l.03-4.38-5.63.05.02,5.54-.13-.08h0Z"/><path class="cls-2" d="M4.54,27.71c.3.28.03.23,1.39.21l4.13-.04c.47-.15-.06.18.31-.18l-.14.09.06-5.62c-.92.17-4.73.17-5.67.02l.04,4.39c.01,1.39.17,1.09-.12,1.13h0Z"/><polygon class="cls-2" points="12.68 27.81 18.28 27.75 18.28 22.23 12.67 22.26 12.68 27.81 12.68 27.81"/><path class="cls-2" d="M30.87.08c-1.83.34-1.37,2.63-1.37,4.5,0,1.85-.17,3.98,2.22,3.5,1.75-.36,1.3-2.59,1.31-4.47,0-.86.13-2.02-.24-2.76-.26-.52-1-.94-1.91-.77h0Z"/><path class="cls-2" d="M7.26.14c-1.69.53-1.26,1.59-1.26,4.44,0,1.8-.15,4.13,2.27,3.5,1.66-.43,1.22-2.81,1.22-4.61,0-.86.14-1.97-.29-2.71-.29-.51-1.12-.89-1.94-.63h0Z"/><path class="cls-2" d="M19.11.08c-1.81.45-1.35,2-1.35,4.5,0,1.84-.22,3.99,2.19,3.51,1.74-.34,1.28-2.67,1.28-4.48,0-.82.45-4.17-2.12-3.53h0Z"/></svg>