<?xml version="1.0" encoding="UTF-8"?><svg id="Capa_1" xmlns="http://www.w3.org/2000/svg" viewBox="0 0 29.62 33.71"><defs><style>.cls-1{fill:none;}.cls-1,.cls-2{stroke:#532665;stroke-miterlimit:22.93;stroke-width:.57px;}.cls-3{stroke-width:0px;}.cls-3,.cls-2{fill:#d7b46a;fill-rule:evenodd;}</style></defs><path class="cls-1" d="M13.3,10.62c6.3,0,11.4,5.11,11.4,11.4s-5.11,11.4-11.4,11.4S1.89,28.32,1.89,22.02s5.11-11.4,11.4-11.4h0ZM11.52,10.8c-1.76,6.68-1.35,14.87-.23,22.56M14.66,10.8c1.76,6.68,1.35,14.87.23,22.56M7.81,12.02c-2.75,6.84-2.95,14.13-.03,19.98M18.18,11.71c3.81,7.29,3.31,14.95-.56,20.8M3.38,16.44c6.6-2.63,13.21-2.27,19.81,0M1.79,19.99c7.57-1.17,15.14-1.22,22.72,0M2.06,23.94c7.52.56,15.04.52,22.56,0M2.83,26.55c7.66,3.6,11.32,4.33,20.89.11"/><polygon class="cls-2" points="3.62 16.34 6.68 15.37 6.02 19.46 2.12 19.76 3.62 16.34 3.62 16.34"/><polygon class="cls-3" points="5.86 19.47 10.09 19.17 10.38 24.1 5.71 23.98 5.86 19.47 5.86 19.47"/><polygon class="cls-3" points="2.32 24.26 5.64 24.27 6.29 27.93 3.09 26.67 2.32 24.26 2.32 24.26"/><polygon class="cls-3" points="10.65 24.44 15.61 24.61 15.23 29.39 10.96 29.39 10.65 24.44 10.65 24.44"/><polygon class="cls-3" points="6.56 28.47 10.61 29.34 10.99 33.19 7.54 31.87 6.56 28.47 6.56 28.47"/><path class="cls-1" d="M13.25,8.49c.78,0,1.41.45,1.41,1s-.63,1-1.41,1-1.41-.45-1.41-1,.63-1,1.41-1h0Z"/><polygon class="cls-2" points="13.07 .28 13.43 .28 13.43 8.49 13.07 8.49 13.07 .28 13.07 .28"/><path class="cls-3" d="M1.43,4.86c.74.2,1.32.24,1.9.68.14.11.17.16.28.27.07.06.2.25.24.32.22.36.27.69.38,1.1.03.13.1.47.15.58.23-.53.19-1.29.68-1.9.04-.05.05-.05.09-.1.19-.27.71-.56,1.01-.65.17-.05,1.1-.26,1.18-.31-.37-.12-.8-.18-1.17-.3-.27-.09-.69-.3-.88-.5-.54-.58-.55-.76-.75-1.55-.05-.19-.12-.41-.15-.6,0,0,0,0-.01.01l-.05.13c-.01.05-.02.1-.04.15-.13.55-.25,1.17-.6,1.6-.3.36-.62.6-1.1.75-.22.07-1.06.24-1.17.31h0Z"/><path class="cls-3" d="M0,30.97c.52.14.94.17,1.35.48.1.08.12.12.2.19.05.04.14.17.17.23.16.26.19.49.27.78.02.1.07.33.11.41.16-.38.13-.91.48-1.34.03-.03.04-.04.06-.07.13-.19.5-.4.72-.46.12-.04.78-.19.84-.22-.26-.09-.57-.13-.83-.21-.19-.06-.49-.21-.62-.35-.38-.41-.39-.54-.53-1.1-.03-.13-.08-.29-.1-.43,0,0,0,0,0,.01l-.03.09s-.02.07-.03.11c-.09.39-.18.83-.43,1.13-.22.26-.44.43-.78.53-.16.05-.75.17-.83.22h0Z"/><path class="cls-3" d="M21.57,11.39c.52.14.94.17,1.35.48.1.08.12.12.2.19.05.04.14.17.17.23.16.26.19.49.27.78.02.1.07.33.11.41.16-.38.13-.91.48-1.34.03-.03.04-.04.06-.07.13-.19.5-.4.72-.46.12-.04.78-.19.84-.22-.26-.09-.57-.13-.83-.21-.19-.06-.49-.21-.62-.35-.38-.41-.39-.54-.53-1.1-.03-.13-.08-.29-.1-.43,0,0,0,0,0,.01l-.03.09s-.02.07-.03.11c-.09.39-.18.83-.43,1.13-.22.26-.44.43-.78.53-.16.05-.75.17-.83.22h0Z"/><path class="cls-3" d="M25.42,27.56c.52.14.94.17,1.35.48.1.08.12.12.2.19.05.04.14.17.17.23.16.26.19.49.27.78.02.1.07.33.11.41.16-.38.13-.91.48-1.34.03-.03.04-.04.06-.07.13-.19.5-.4.72-.46.12-.04.78-.19.84-.22-.26-.09-.57-.13-.83-.21-.19-.06-.49-.21-.62-.35-.38-.41-.39-.54-.53-1.1-.03-.13-.08-.29-.1-.43,0,0,0,0,0,.01l-.03.09s-.02.07-.03.11c-.09.39-.18.83-.43,1.13-.22.26-.44.43-.78.53-.16.05-.75.17-.83.22h0Z"/></svg>