<?xml version="1.0" encoding="UTF-8"?><svg id="Capa_1" xmlns="http://www.w3.org/2000/svg" viewBox="0 0 19.15 19.15"><defs><style>.cls-1{fill:#532665;fill-rule:evenodd;stroke-width:0px;}</style></defs><path class="cls-1" d="M5.1.04c-.67.03-1.32.24-1.87.5C1.56,1.36.46,2.74.11,4.64c-.14.76-.08,3.7-.08,4.67,0,1.5-.09,3.29.02,4.76.1,1.28.64,2.39,1.48,3.29.36.39.75.75,1.34,1.06.56.29,1.09.5,1.77.62.83.14,3.65.08,4.67.08,1.52,0,3.27.08,4.77-.02,2.45-.17,4.56-2.15,4.97-4.6.14-.85.07-5.82.07-7.06,0-1.88.16-3.39-.95-4.98-.84-1.22-2.13-2.09-3.66-2.35-.84-.14-3.65-.08-4.68-.08-1.55,0-3.21-.05-4.75.02h0ZM5.26,1.77c-.79.09-1.54.35-2.1.85-1.16,1.04-1.4,1.96-1.4,3.51,0,.7-.04,7.29.02,7.81.17,1.54,1.15,2.76,2.61,3.27.55.19,1.13.19,1.75.19.74,0,7.25.04,7.81-.02,1.19-.13,1.83-.58,2.56-1.36.78-.82.9-1.88.9-3,0-.76.04-7.22-.02-7.81-.12-1.14-.58-1.85-1.35-2.56-.84-.77-1.88-.9-3-.9-.7,0-7.26-.04-7.77.02h0ZM9,4.7c-.68.08-1.36.3-1.85.6-.59.35-.63.42-1.02.81-.5.5-.41.39-.81,1.02-.15.23-.27.55-.38.85-.23.67-.32,1.44-.23,2.18.14,1.12.51,1.77,1.11,2.56l.61.61c.27.2.41.31.72.5.84.51,2,.72,3.03.6,1.25-.15,1.77-.53,2.56-1.11.27-.2.41-.34.61-.61.28-.37.24-.27.5-.72.16-.28.28-.54.38-.84.44-1.32.33-2.84-.38-4.02-.42-.7-.42-.61-.81-1.02-.99-1.06-2.53-1.6-4.04-1.41h0ZM9.27,6.4c-1.15.08-2.27.98-2.67,2.09-.78,2.17.94,4.45,3.33,4.24,2.79-.25,4.06-4.17,1.27-5.9-.57-.35-1.26-.47-1.93-.43h0Z"/><path class="cls-1" d="M14.46,3.35c-.14.04-.31.09-.42.16-.38.26-.56.71-.47,1.2.27,1.43,2.52,1.07,2.23-.48-.09-.48-.45-.78-.84-.88-.19-.05-.32-.06-.51-.01h0Z"/></svg>