<?xml version="1.0" encoding="utf-8"?>
<!-- Generator: Adobe Illustrator 28.0.0, SVG Export Plug-In . SVG Version: 6.00 Build 0)  -->
<svg version="1.1" id="Capa_1" xmlns="http://www.w3.org/2000/svg" xmlns:xlink="http://www.w3.org/1999/xlink" x="0px" y="0px"
	 viewBox="0 0 398.7 185" style="enable-background:new 0 0 398.7 185;" xml:space="preserve">
<style type="text/css">
	.st0{fill:#FFFFFF;}
	.st1{fill:#5F2E75;}
</style>
<g>
	<path class="st0" d="M121.2,97.3v24.7h-4.1v-18.5l-7.1,18.5h-3.5l-7.2-18.5v18.5h-4.1V97.3h4.9l8.2,19.7l8-19.7
		C116.2,97.3,121.2,97.3,121.2,97.3z"/>
	<path class="st0" d="M130.1,96.9v25.1H126V96.9H130.1z"/>
	<path class="st0" d="M150.6,118.7c-0.6,1-1.5,1.9-2.7,2.6c-1.2,0.6-2.7,1-4.5,1s-3.2-0.3-4.6-0.9c-1.4-0.6-2.4-1.4-3.2-2.6
		c-0.8-1.1-1.3-2.3-1.4-3.8h4.3c0.1,1.1,0.6,2,1.4,2.8c0.8,0.8,1.9,1.2,3.3,1.2c1.2,0,2.2-0.3,2.9-1s1-1.5,1-2.6
		c0-0.9-0.2-1.7-0.7-2.2s-1.1-1-1.8-1.4c-0.7-0.3-1.8-0.7-3-1.1c-1.5-0.5-2.8-1-3.8-1.5c-1-0.5-1.8-1.2-2.5-2.2c-0.7-1-1-2.2-1-3.8
		c0-1.4,0.3-2.6,1-3.5c0.6-1,1.6-1.8,2.9-2.3c1.2-0.6,2.6-0.8,4.2-0.8c2.6,0,4.6,0.6,6.1,1.8s2.3,2.9,2.6,4.8h-4.4
		c-0.2-1-0.6-1.8-1.4-2.4c-0.7-0.6-1.7-1-3-1c-1.1,0-2.1,0.3-2.7,0.9c-0.7,0.6-1,1.4-1,2.5c0,0.9,0.2,1.5,0.7,2.1s1,1,1.8,1.3
		c0.7,0.3,1.7,0.7,3,1.1c1.6,0.5,2.9,1,3.9,1.5c1,0.6,1.8,1.3,2.6,2.2c0.7,1,1,2.2,1,3.8C151.5,116.5,151.1,117.6,150.6,118.7
		C150.6,118.7,150.6,118.7,150.6,118.7z"/>
	<path class="st0" d="M178.2,121.9l-6-9.3l-5.4,9.3h-4.6l7.8-12.8L162,96.9h4.8l5.9,9.1l5.4-9.1h4.6l-7.8,12.6l8.1,12.5
		C183,121.9,178.2,121.9,178.2,121.9z"/>
	<path class="st0" d="M188.6,96.9l7.2,20.8l7.3-20.8h4.4l-9.1,25.1h-5.2l-9.1-25.1H188.6z"/>
	<path class="st0" d="M233.8,116.5h-10.6l-1.9,5.5H217l9.2-24.7h4.6l9.2,24.7h-4.3L233.8,116.5L233.8,116.5z M232.7,113.4l-4.2-11.7
		l-4.2,11.7H232.7z"/>
	<path class="st0" d="M263.4,121.9h-4.1l-12.2-18.5v18.5H243V96.9h4.1l12.2,18.6V96.9h4.1V121.9z M252.2,90.8
		c0.3,0.2,0.8,0.4,1.3,0.7c0.3,0.2,0.7,0.5,1,0.6c0.2,0.1,0.6,0.2,1,0.2c0.4,0,0.7-0.2,1-0.4s0.5-0.7,0.6-1.3h2.2
		c-0.2,1.4-0.6,2.4-1.3,3.1s-1.5,1-2.6,1c-0.5,0-1-0.1-1.4-0.2c-0.4-0.2-0.8-0.4-1.3-0.7c-0.5-0.2-0.8-0.5-1-0.6
		c-0.2-0.1-0.5-0.2-0.8-0.2c-0.9,0-1.4,0.6-1.5,1.7h-2.2c0.5-2.8,1.8-4.2,3.8-4.2C251.5,90.7,251.9,90.8,252.2,90.8
		C252.2,90.8,252.2,90.8,252.2,90.8z"/>
	<path class="st0" d="M286.2,98.1c1.9,1.1,3.4,2.6,4.4,4.6c1.1,1.9,1.6,4.2,1.6,6.7c0,2.5-0.6,4.6-1.6,6.7c-1,2-2.6,3.5-4.4,4.6
		c-1.8,1-4,1.7-6.3,1.7s-4.5-0.6-6.3-1.7c-1.8-1.1-3.4-2.6-4.5-4.6c-1.1-1.9-1.6-4.2-1.6-6.7c0-2.5,0.6-4.6,1.6-6.7
		c1.1-1.9,2.6-3.4,4.5-4.6c1.9-1.1,4-1.6,6.3-1.6S284.3,97.1,286.2,98.1z M275.6,101.4c-1.3,0.7-2.2,1.8-3,3.1c-0.7,1.4-1,3-1,4.8
		s0.3,3.4,1,4.8c0.7,1.4,1.7,2.4,3,3.1s2.7,1.1,4.3,1.1c1.6,0,3-0.4,4.2-1.1s2.2-1.8,2.9-3.1c0.7-1.4,1-3,1-4.8s-0.3-3.4-1-4.8
		s-1.7-2.4-2.9-3.1c-1.2-0.7-2.6-1.1-4.2-1.1C278.4,100.3,276.8,100.6,275.6,101.4z"/>
	<path class="st0" d="M311.9,118.7c-0.6,1-1.5,1.9-2.7,2.6c-1.2,0.6-2.7,1-4.4,1c-1.7,0-3.2-0.3-4.6-0.9c-1.4-0.6-2.4-1.4-3.2-2.6
		c-0.8-1.1-1.3-2.3-1.4-3.8h4.3c0.1,1.1,0.6,2,1.4,2.8c0.9,0.8,1.9,1.2,3.3,1.2c1.2,0,2.2-0.3,2.9-1s1-1.5,1-2.6
		c0-0.9-0.2-1.7-0.7-2.2s-1.1-1-1.8-1.4c-0.7-0.3-1.8-0.7-3-1.1c-1.6-0.5-2.8-1-3.8-1.5c-1-0.5-1.8-1.2-2.5-2.2c-0.7-1-1-2.2-1-3.8
		c0-1.4,0.3-2.6,1-3.5c0.6-1,1.6-1.8,2.8-2.3c1.2-0.6,2.6-0.8,4.2-0.8c2.6,0,4.6,0.6,6.1,1.8s2.4,2.9,2.6,4.8h-4.4
		c-0.2-1-0.6-1.8-1.4-2.4c-0.7-0.6-1.7-1-3-1c-1.1,0-2.1,0.3-2.7,0.9c-0.7,0.6-1,1.4-1,2.5c0,0.9,0.2,1.5,0.7,2.1
		c0.5,0.6,1,1,1.8,1.3c0.7,0.3,1.7,0.7,3,1.1c1.6,0.5,2.9,1,3.9,1.5c1,0.5,1.8,1.3,2.6,2.2c0.7,1,1,2.2,1,3.8
		C312.8,116.5,312.6,117.6,311.9,118.7L311.9,118.7L311.9,118.7z"/>
</g>
<rect x="98.7" y="82.7" class="st1" width="118.2" height="5.1"/>
<rect x="195.8" y="131.7" class="st1" width="118.2" height="5.1"/>
<rect x="41.2" y="166.6" class="st1" width="73.8" height="3.9"/>
<rect x="285.4" y="166.6" class="st1" width="74.5" height="3.9"/>
<g>
	<path class="st0" d="M149.3,8.4v43.4c0,14.9-8.2,22.3-24.7,22.3c-16.4,0-24.6-7.4-24.6-22.3V8.4h18.8v43.9c0,5.7,0.8,9.6,2.4,11.6
		c1.6,2.1,4.6,3.1,9,3.1c8.5,0,12.7-5.1,12.7-15.3V8.4H149.3z"/>
	<path class="st0" d="M219.5,8.4v64.6h-18.1v-45l-12.6,45h-10.5l-12.9-44.2v44.2h-6.3V8.4h19l11.1,39l11-39H219.5z"/>
	<path class="st0" d="M260.1,8.4l18,64.6h-18.8l-3.8-14h-19.5l-4.1,14h-7.3l19.1-64.6H260.1z M237.7,52.6h15.9L246,23.9L237.7,52.6z
		"/>
</g>
<g>
	<path class="st0" d="M130.4,151.6v24.3h-6.8v-18.3c-1.8,0.9-3.5,1.4-5.1,1.5v-3.2c3.6-0.4,6.1-1.8,7.6-4.3H130.4z"/>
	<path class="st0" d="M156.1,151.6l-0.9,5.1h-11.5l-0.9,5.2c1.9-1.3,4-2,6.1-2c2.5,0,4.6,0.7,6.2,2.2c1.6,1.5,2.4,3.4,2.4,5.7
		c0,2.6-0.9,4.6-2.7,6.2c-1.8,1.5-4.3,2.3-7.4,2.3c-5.6,0-8.4-1.9-8.4-5.8c0-0.6,0.1-1.2,0.2-2.1l3.2-0.7c-0.2,1-0.3,1.9-0.3,2.7
		c0,2.4,1.3,3.6,3.9,3.6c3.1,0,4.6-2.2,4.6-6.6c0-3.1-1.3-4.7-3.9-4.7c-1.6,0-3,0.8-4.2,2.5l-2.8-0.7l2.3-13.1H156.1z"/>
	<path class="st0" d="M159.2,182l11.9-30.4h2.6L161.8,182H159.2z"/>
	<path class="st0" d="M190.6,151.6v24.3h-6.8v-18.3c-1.8,0.9-3.5,1.4-5.1,1.5v-3.2c3.6-0.4,6.1-1.8,7.6-4.3H190.6z"/>
	<path class="st0" d="M212.8,151.6v24.3H206v-18.3c-1.8,0.9-3.5,1.4-5.1,1.5v-3.2c3.6-0.4,6.1-1.8,7.6-4.3H212.8z"/>
	<path class="st0" d="M219.3,182l11.9-30.4h2.6L221.9,182H219.3z"/>
	<path class="st0" d="M255.2,170.1v5.8H237v-3.4c1.5-1.6,3.2-3.4,5.1-5.2c4.3-4.1,6.5-7.3,6.5-9.5c0-2.9-1.2-4.4-3.5-4.4
		c-2.8,0-4.2,1.8-4.2,5.3c0,0.8,0.2,2,0.6,3.5l-3.8-0.9c-0.3-1.1-0.4-2-0.4-2.7c0-4.9,3-7.4,9.1-7.4c2.6,0,4.7,0.6,6.4,1.9
		c1.7,1.3,2.5,2.9,2.5,4.9c0,2.3-1.6,4.7-4.9,7.4l-2.2,1.8l-2.4,2c-0.2,0.1-0.5,0.4-1.1,0.8H255.2z"/>
	<path class="st0" d="M276.4,151.6l-0.9,5.1H264l-0.9,5.2c1.9-1.3,4-2,6.1-2c2.5,0,4.6,0.7,6.2,2.2c1.6,1.5,2.4,3.4,2.4,5.7
		c0,2.6-0.9,4.6-2.7,6.2c-1.8,1.5-4.3,2.3-7.4,2.3c-5.6,0-8.4-1.9-8.4-5.8c0-0.6,0.1-1.2,0.2-2.1l3.2-0.7c-0.2,1-0.3,1.9-0.3,2.7
		c0,2.4,1.3,3.6,3.9,3.6c3.1,0,4.6-2.2,4.6-6.6c0-3.1-1.3-4.7-3.9-4.7c-1.6,0-3,0.8-4.2,2.5l-2.8-0.7l2.3-13.1H276.4z"/>
</g>
</svg>
