<?xml version="1.0" encoding="UTF-8"?><svg id="Capa_1" xmlns="http://www.w3.org/2000/svg" viewBox="0 0 10.82 13.63"><defs><style>.cls-1{fill:#532665;fill-rule:evenodd;stroke-width:0px;}</style></defs><path class="cls-1" d="M3.59.5c.7,1.63,1.02,1.65,1.67,3.97.44,1.57.55,3.37.29,5.04-.33-.3-.31-.62-.88-1.02-1.42-.99-2.88-.71-3.93.41-2.38,2.53,1.5,6.55,4.23,3.81.61-.61.9-1.63,1.14-2.64.61-2.52.36-4.24.07-6.75,4.63-.89,3.44,2.91,2.98,5.24.84-1.47,2.32-5.02,1.34-6.99C9.42-.59,6.01-.07,3.59.5h0Z"/></svg>