<?xml version="1.0" encoding="UTF-8"?><svg id="Capa_1" xmlns="http://www.w3.org/2000/svg" viewBox="0 0 36.27 19.36"><defs><style>.cls-1{fill:#532665;fill-rule:evenodd;stroke-width:0px;}</style></defs><path class="cls-1" d="M15.83,3.34c-.02-.9-.75-1.78.11-2.48.96-.78,1.61,0,2.18.4.54-.37.78-.94,1.8-.61,1.33.42,1.34,2.68-2.06,4.3l-.03,1.71c-2.73.21-2.95,1.72-4.19,3.33-1.79,2.32-9,5.55-12.09,6.99-.59.28-2.13,1.34-1.31,2.2.27.27,3.55.1,4.14.1h29.65c.63,0,1.6.24,1.97-.1,1.41-1.38-3.06-3-3.79-3.34-2.45-1.16-8.08-3.9-9.55-5.77-1.29-1.65-1.51-3.19-4.26-3.41v-1.31c1.14-.8,2.01-1.22,2.6-2.33.72-1.37.1-2.84-1.32-2.98-1.16-.12-1.1.54-1.85.27-.71-.25-1.08-.5-1.93-.08-.94.46-1.19,1.52-.8,2.51.2.51.22.54.73.61h0ZM2.53,18.61l31.21.02c-.8-.62-2.86-1.57-3.83-2.08-1.85-.98-11.24-6.16-11.79-6.16-.6,0-6.72,3.48-7.83,4.05l-7.76,4.17h0Z"/></svg>