<?xml version="1.0" encoding="UTF-8"?><svg id="Capa_1" xmlns="http://www.w3.org/2000/svg" viewBox="0 0 121.09 148.29"><defs><style>.cls-1{fill:#da4b54;}.cls-1,.cls-2,.cls-3,.cls-4,.cls-5,.cls-6,.cls-7,.cls-8,.cls-9,.cls-10,.cls-11,.cls-12,.cls-13,.cls-14,.cls-15{stroke-width:0px;}.cls-2{fill:#f8b880;}.cls-3{fill:#dd636f;}.cls-4{fill:#f6a85f;}.cls-5{fill:#406e8f;}.cls-6{fill:#385f7e;}.cls-7{fill:#92d4f5;}.cls-8{fill:#f2a55d;}.cls-9{fill:#e4f4fd;}.cls-10{fill:#010101;}.cls-11{fill:#f49740;}.cls-12{fill:#f4a65e;}.cls-13{fill:#f5fbff;}.cls-14{fill:#7bcdf4;}.cls-15{fill:#2a4c65;}</style></defs><path class="cls-10" d="M55.36,148.29c-1.99-.7-4.11-.69-6.15-1.08-10.28-1.98-19.43-6.32-27.43-13.03-9.92-8.32-16.73-18.74-19.8-31.32-4.89-20.03-.7-38.14,12.34-54.16,2.35-2.89,5.03-5.47,7.93-7.8.63-.51.67-.84.28-1.51-1.45-2.44-2.86-4.9-4.26-7.37-1.54-2.72-.88-5.21,1.79-6.77,1.91-1.11,3.82-2.23,5.75-3.3,2.49-1.38,5-.71,6.46,1.73,1.46,2.43,2.86,4.9,4.25,7.37.37.66.68.83,1.44.51,4.36-1.84,8.91-3.03,13.59-3.72.82-.12.89-.45.89-1.11-.02-3.14-.04-6.28.01-9.41.01-.83-.25-1.1-1.07-1.06-1.06.06-2.12.04-3.18,0-2.69-.11-4.62-2.03-4.69-4.71-.06-2.27-.06-4.54,0-6.81.06-2.48,1.54-3.93,3.73-4.77h8.98c1.2.35,1.81,1.13,1.76,2.41-.14.87-.58,1.54-1.34,1.99-1.67.69-3.43.34-5.14.36-3.51.06-3.24-.16-3.23,3.21.01,3.84-.45,3.44,3.49,3.47,1.69.01,3.37-.03,5.06.02,4.68-.05,9.36,0,14.03-.02,1.93,0,2.01-.1,2.02-2.06,0-1.06,0-2.12,0-3.18,0-.98-.46-1.39-1.41-1.39-1.78-.02-3.57.03-5.35-.03-1.44-.04-2.51-.62-2.93-2.1-.17-1.38.41-2.27,1.74-2.67h8.98c2.77,1.02,3.92,3.02,3.77,5.93-.09,1.78,0,3.57-.02,5.36-.04,3-1.97,4.93-4.99,5.01-.05,0-.1,0-.14,0-1.23.1-2.92-.56-3.58.29-.62.79-.2,2.4-.21,3.65-.01,2.12.03,4.25-.02,6.37-.02.79.12,1.12,1.04,1.27,13.77,2.21,25.52,8.33,35.04,18.54,9.47,10.16,14.89,22.2,16.09,36.07,2.64,30.62-17.91,58.23-48.05,64.57-2.35.5-4.73.88-7.15.98-.26.01-.59-.12-.75.25h-9.56Z"/><path class="cls-7" d="M49.85,32.69c4.67-1.21,9.44-1.33,14.2-1.04,8.87.54,17.22,3,24.85,7.59,14.53,8.73,23.6,21.45,26.9,38.07,5.81,29.33-13.4,58.61-42.58,65.19-7.96,1.8-15.93,1.98-23.93.25-1.07-.65-2.28-.98-3.42-1.5-5.83-2.67-11.08-6.18-15.75-10.59-5.39-5.08-9.74-10.91-12.9-17.61-.47-1-.91-2.02-1.31-3.05-.2-.51-.59-1.23.48-1.37,1.62,2.45,2.91,5.11,4.65,7.49,8.12,11.08,19.03,17.55,32.54,19.67,10.15,1.6,19.89.02,28.93-4.71,13.59-7.11,22.43-18.21,25.57-33.29,3.22-15.44-.38-29.45-10.57-41.53-7.94-9.41-18.19-15.01-30.4-16.65-12.52-1.68-24.02,1.25-34.47,8.39-6.73,4.6-11.78,10.63-15.53,17.81-.2.38-.37.79-.7,1.09-1.1,0-.62-.78-.49-1.2.35-1.15.85-2.26,1.39-3.33,5.5-10.99,13.47-19.65,24.21-25.73,2.69-1.52,5.56-2.64,8.35-3.93Z"/><path class="cls-14" d="M16.22,108.61c-.46.51-.15.97.05,1.46,3.4,8.34,8.58,15.43,15.24,21.43,4.89,4.4,10.46,7.78,16.52,10.33.51.22.96.42,1.24.9-22.3-4.55-39.76-22.29-43.96-44.65C-.26,68.34,18.95,39.34,48.56,32.81c.42-.09.86-.09,1.29-.13-.87,1.25-2.38,1.38-3.61,1.94-5.29,2.4-10.06,5.57-14.47,9.35-4.73,4.05-8.52,8.84-11.74,14.12-1.43,2.34-2.72,4.76-3.7,7.34-.17.44-.63.94-.13,1.47.32.62-.07,1.12-.28,1.64-2.66,6.56-4.09,13.34-3.89,20.45.18,5.99,1.39,11.76,3.66,17.3.3.73.84,1.44.52,2.32Z"/><path class="cls-5" d="M57.73,2.24c1.9.01,3.8.02,5.69.03.28,1.47,1.16,2.11,2.65,2.08,1.98-.04,3.95.02,5.93-.03.91-.02,1.33.23,1.3,1.21-.05,1.78-.04,3.57,0,5.35.01.74-.26,1.03-1.01,1.02-5.16-.04-10.31-.04-15.47-.06-.32-.33-.42-.74-.44-1.18-.05-1.81-.05-3.63,0-5.44.01-.44.14-.85.42-1.19.42-.54.9-1.05.93-1.79Z"/><path class="cls-6" d="M56.8,4.04c0,2.61,0,5.21.01,7.82-2.6.02-5.21,0-7.81.06-.89.02-1.18-.31-1.16-1.18.05-1.69.06-3.38,0-5.06-.03-1,.31-1.38,1.33-1.34,1.93.06,3.86,0,5.79.03.64,0,1.24-.1,1.83-.32Z"/><path class="cls-15" d="M61.73,27.19c-1.3.01-2.6,0-3.9.05-.71.02-1.05-.17-1.04-.96.03-3.03.01-6.07.02-9.1,0-.38-.02-.89.51-.87,2.32.1,4.66-.43,6.96.22-.61.54-1.36.39-2.06.41-.85.02-1.21.4-1.21,1.24,0,2.4.02,4.8-.01,7.2,0,.75.63,1.16.74,1.82Z"/><path class="cls-6" d="M61.73,27.19c-.87-.25-1.23-.72-1.19-1.72.1-2.54.07-5.09.02-7.63-.02-.97.23-1.43,1.28-1.33.81.08,1.63.02,2.45.02.02,3.26.03,6.52.07,9.78,0,.66-.19.98-.89.93-.57-.05-1.15-.03-1.72-.04Z"/><path class="cls-6" d="M29.9,35.4c-1.09.69-2.26,2.02-3.24,1.89-1.01-.14-1.41-1.96-2.07-3.05-.82-1.35-1.58-2.74-2.39-4.1-.33-.55-.36-.9.32-1.23,1.03-.5,2.01-1.1,3.01-1.66,1.5,2.35,2.83,4.81,4.24,7.21.17.29.32.6.12.95Z"/><path class="cls-5" d="M29.9,35.4c-1.26-2.19-2.52-4.39-3.8-6.58-.29-.5-.62-.97-.57-1.59q2.72-1.81,4.32.97c.89,1.54,1.73,3.11,2.68,4.61.5.79.32,1.14-.46,1.47-.75.32-1.45.74-2.17,1.11Z"/><path class="cls-10" d="M16.22,108.61c-1.9-4.42-3.39-8.94-4.08-13.73-1.34-9.38-.12-18.39,3.7-27.05.13-.3.24-.62.36-.93,1.78-3.83,4.03-7.34,6.77-10.57,2.28-2.69,4.75-5.14,7.56-7.28,5.77-4.39,12.14-7.47,19.21-9.08,26.44-6.01,52.8,10.74,58.62,37.23,5.87,26.73-11.22,53.11-38.12,58.53-13.25,2.67-25.6.06-36.95-7.33-3.23-2.11-6.21-4.51-8.77-7.38-3.34-3.74-6.22-7.82-8.31-12.42Z"/><path class="cls-13" d="M58.29,43.74c.03,4.5.08,9,.08,13.5,0,1.59.58,2.65,2.18,3.04.75,1.82.76,3.63,0,5.45-1.72.5-2.26,1.69-2.19,3.4.09,1.98-.01,3.96.04,5.94.02.76-.2,1.07-.96,1.27-2.5.66-4.56,2.04-6.14,4.09-.47.61-.97.78-1.7.79-2.17.02-4.35-.21-6.5.14-3.42.55-5.65,3.36-5.46,6.86.18,3.26,2.74,5.85,6.08,6.01,1.97.1,3.96.06,5.93.02.69-.01,1.11.2,1.56.75,5.12,6.21,13.65,6.22,18.73,0,.51-.62,1.01-.74,1.71-.74,7,.01,14-.03,20.99.03,3.02.02,5.35-1,6.75-3.78.08-.17.19-.43.32-.45,1.72-.26,3.44-.16,5.17-.06.37.02.25.46.23.73-.46,5.81-1.87,11.36-4.45,16.61-.29.6-.48.78-1.14.43-2.18-1.17-3.24-1.07-3.97.27-.69,1.25-.26,2.15,1.82,3.46.66.41.56.68.2,1.21-3.28,4.79-7.31,8.82-12.1,12.09-.62.42-.88.33-1.16-.31-.19-.43-.46-.85-.77-1.21-.76-.88-1.74-1.07-2.72-.49-1.04.61-1.41,1.55-.9,2.72.28.65.99,1.42.82,1.87-.27.7-1.32.84-2.06,1.17-4.79,2.12-9.81,3.35-15.03,3.75-.65.05-.87-.11-.86-.75,0-.57-.01-1.16-.12-1.72-.22-1.11-1.04-1.64-2.09-1.63-1.05.01-1.85.56-2.05,1.68-.1.56-.11,1.15-.11,1.73,0,.84-.4.86-1.01.56-3.51-1.48-6.95-3.08-10.08-5.27-11.48-8.03-18.49-18.96-20.26-32.85-2.08-16.3,3.28-30.12,15.29-41.3,4.13-3.85,8.96-6.67,14.21-8.77.56-.22,1.13-.63,1.77-.19Z"/><path class="cls-3" d="M70.16,44.28c3.55.57,6.83,1.91,10.05,3.42.61.29.67.57.33,1.08-.24.36-.46.74-.63,1.13-.51,1.15-.16,2.3.91,2.84,1.09.55,2.04.3,2.83-.63.45-.53.53-1.64,1.23-1.6.66.03,1.31.73,1.93,1.18,4.16,3.06,7.69,6.71,10.63,10.96.54.78.47,1.1-.35,1.47-.75.34-1.49.79-1.71,1.65-.23.89-.07,1.73.7,2.35.81.65,1.66.63,2.56.17,1.68-.85,1.7-.85,2.46.82,2.23,4.91,3.57,10.04,3.97,15.42.05.69-.05,1-.79.95-.62-.04-1.26-.05-1.88,0-1.63.12-2.89,0-3.89-1.79-1.16-2.06-3.47-2.57-5.81-2.57-7,.01-13.99,0-20.99.01-.82,0-1.55-.01-1.85-.95-.43-.74-.48-1.55-.48-2.37,0-10.44-.01-20.89.02-31.33,0-.77-.39-1.79.76-2.22Z"/><path class="cls-9" d="M58.29,43.74c-4.66,1.43-8.82,3.83-12.67,6.73-7.95,6-13.44,13.8-16.53,23.26-1.84,5.64-2.47,11.47-2.07,17.35.42,6.18,2.04,12.12,4.85,17.65,1.89,3.73,4.27,7.15,7.08,10.3,4.9,5.49,10.79,9.49,17.55,12.29.37.15.91.16.87.78-5.81-.21-11.24-1.84-16.45-4.35-.58-.28-.75-.52-.35-1.05.14-.19.24-.42.36-.63.82-1.5.61-2.7-.59-3.37-1.17-.65-2.52-.21-3.26,1.21-.58,1.12-1.09,1.14-2.08.42-4.34-3.19-8.08-6.94-11.2-11.34-.61-.87-.67-1.35.39-1.78.73-.29,1.37-.78,1.58-1.58.23-.9.04-1.74-.75-2.33-.77-.59-1.58-.59-2.44-.17-1.78.86-1.78.85-2.6-.92-2.27-4.9-3.49-10.06-3.96-15.42-.06-.69.11-.99.83-.93.43.04.87.02,1.3-.02,1.18-.11,1.87-.79,1.96-1.95.09-1.22-.54-1.94-1.72-2.33-.79-.25-1.95.49-2.31-.48-.27-.73.07-1.7.17-2.57.59-5,2-9.77,4.17-14.32.4-.83.78-.8,1.39-.36.16.11.33.21.49.3,1.4.75,2.58.51,3.25-.64.67-1.15.35-2.43-1.11-3.11-1.41-.67-1.19-1.22-.43-2.28,3.08-4.26,6.74-7.91,11.01-10.98,1-.72,1.64-.93,2.16.44.26.69.81,1.22,1.57,1.37.86.17,1.64-.04,2.2-.76.59-.76.62-1.56.2-2.43-.88-1.83-.87-1.83,1.01-2.69,4.82-2.19,9.88-3.43,15.14-3.85.34-.03,1.07-.46.95.5Z"/><path class="cls-1" d="M70.16,44.28c-.48.42-.31.99-.31,1.49,0,11.48,0,22.95,0,34.43-1.76-1.89-3.79-3.38-6.35-3.97-.78-.18-.68-.66-.68-1.17,0-1.97,0-3.93,0-5.9,0-2.21-.27-2.61-2.27-3.44,0-1.82,0-3.63,0-5.45,1.95-.77,2.26-1.21,2.27-3.31,0-4.18.03-8.36-.02-12.54-.01-1.01.22-1.33,1.29-1.16,2.02.33,4.1.34,6.06,1.01Z"/><path class="cls-2" d="M62.04,80.49c3.41.49,6.1,3.75,6.02,7.31-.08,3.72-2.82,6.86-6.3,7.22-.85.32-1.44-.02-2.01-.66-3.27-3.68-3.23-9.64.11-13.21.61-.65,1.29-.99,2.18-.67Z"/><path class="cls-4" d="M62.04,80.49c-.72-.05-1.28.2-1.77.75-3.53,4.01-3.46,9.4.15,13.4.39.43.88.3,1.33.38-3.39.83-7.19-1.46-8.33-5.02-1.17-3.67.7-7.74,4.28-9.17,1.38-.55,2.83-.96,4.33-.34Z"/><path class="cls-12" d="M72.49,87.76q-.15-2.2,2.02-2.2c6.03,0,12.06,0,18.09,0,1.1,0,2.28-.07,2.74,1.31.26.81-.35,1.01-.89,1.19-.6.2-1.24.16-1.86.16-5.97,0-11.93,0-17.9,0-.75,0-1.56.13-2.2-.46Z"/><path class="cls-11" d="M72.49,87.76c6.99,0,13.98,0,20.96,0,.76,0,1.59.12,1.89-.88.56,1.66-.2,2.93-1.89,2.94-6.77.04-13.54.01-20.32.03-.6,0-.91-.11-.75-.8.1-.42.07-.86.1-1.29Z"/><path class="cls-8" d="M42.07,87.46c.05-1.27.88-1.77,1.98-1.85,1.34-.09,2.7-.04,4.05-.07.55-.01.8.16.68.77-.09.47-.08.96-.12,1.44-2.23.59-4.44.96-6.59-.29Z"/><path class="cls-11" d="M42.07,87.46c2.17.6,4.39.16,6.59.29q.14,2.08-1.96,2.08c-.82,0-1.64.02-2.46,0-1.55-.05-2.16-.72-2.17-2.37Z"/></svg>